<svg id="Layer_1" data-name="Layer 1" xmlns="http://www.w3.org/2000/svg" xmlns:xlink="http://www.w3.org/1999/xlink" viewBox="0 0 16 16"><defs><style>.cls-1{fill:#71747d;}.cls-2{fill:url(#linear-gradient);}.cls-3{fill:url(#linear-gradient-2);}.cls-4{fill:#fff;}</style><linearGradient id="linear-gradient" x1="17.45" y1="8.65" x2="-1.1" y2="8.65" gradientUnits="userSpaceOnUse"><stop offset="0" stop-color="#00a3df"/><stop offset="0.3" stop-color="#0b86c8"/><stop offset="0.94" stop-color="#263d8e"/><stop offset="1" stop-color="#293588"/></linearGradient><linearGradient id="linear-gradient-2" x1="17.45" y1="8" x2="-1.1" y2="8" xlink:href="#linear-gradient"/></defs><ellipse class="cls-1" cx="10.03" cy="5.85" rx="0.64" ry="0.71"/><path class="cls-2" d="M4.77,14.21l-.27.72a7.63,7.63,0,0,0,3.5.84A7.72,7.72,0,0,0,12.14,1.54l-.26.74-.05.15-.2.56L12.7,4,14,6.31l.19,2.75L13,11.82l-1.6,1.54-2.16.86-2.13-.05-1.28-.41-.13-.92v-1l-.46,1.21-.36,1"/><path class="cls-3" d="M8,16a8,8,0,1,1,8-8A8,8,0,0,1,8,16ZM8,.56A7.44,7.44,0,1,0,15.44,8,7.45,7.45,0,0,0,8,.56Z"/><path class="cls-1" d="M14.52,7.69v0a6.49,6.49,0,0,0-.81-2.76,7,7,0,0,0-.86-1.23c-.11-.12-.28-.33-.47-.52h0L12.24,3l-.47-.42-.23.57.31.32h0l.12.13a6.3,6.3,0,0,1,1.3,1.61A5.92,5.92,0,0,1,14,8a6,6,0,0,1-2.3,4.73A6.11,6.11,0,0,1,6.51,13.8a.88.88,0,0,1-.63-.39,1,1,0,0,1,0-.74l.22-.62a.35.35,0,0,1,.16-.23.36.36,0,0,1,.28,0,4,4,0,0,0,2.78,0,2.7,2.7,0,0,0,1.08-.61,1.72,1.72,0,0,0-.15-2.55,3.37,3.37,0,0,0-.94-.49l-2.63-1A2.66,2.66,0,0,1,6,6.81a1.23,1.23,0,0,1-.14-1.57,1.77,1.77,0,0,1,.7-.5,3.61,3.61,0,0,1,2.81-.06.24.24,0,0,1,.14.1c.06.08,0,.19,0,.28a1.29,1.29,0,0,0-.11,1,.84.84,0,0,0,.76.52A.83.83,0,0,0,10.85,6a1.08,1.08,0,0,0-.07-.86c-.12-.22-.39-.37-.46-.61s.12-.62.21-.89a1.79,1.79,0,0,0,.12-1.22,1.62,1.62,0,0,0-1.2-.81A6.6,6.6,0,0,0,1.5,7.43v.06a6.65,6.65,0,0,0,2.06,5.27h0l.28.24,0,0,.39.34.25-.52L4,12.46H4a5,5,0,0,1-.71-.74l-.06-.07,0,0,0-.07-.11-.16L3,11.28a6,6,0,0,1-.81-4.69A6.07,6.07,0,0,1,4.94,2.88a6.13,6.13,0,0,1,4.57-.65.85.85,0,0,1,.63.44.82.82,0,0,1,0,.44,5.87,5.87,0,0,1-.31.95.21.21,0,0,1-.08.12.26.26,0,0,1-.24,0,4,4,0,0,0-3,0,2.39,2.39,0,0,0-1.06.76,1.75,1.75,0,0,0,.17,2.21,3.4,3.4,0,0,0,1.22.68l2.45.95a2.3,2.3,0,0,1,.86.49,1.15,1.15,0,0,1,.21,1.25,1.73,1.73,0,0,1-1,.83,3.62,3.62,0,0,1-2.63,0,.29.29,0,0,1-.13-.08.32.32,0,0,1,0-.3,1.36,1.36,0,0,0,.13-.88A.81.81,0,0,0,6,9.48a.82.82,0,0,0-.79.35,1.08,1.08,0,0,0,.19,1.28.79.79,0,0,1,.27.38.58.58,0,0,1-.05.34c-.16.51-.5,1.12-.32,1.67a1.19,1.19,0,0,0,.57.64,2.74,2.74,0,0,0,.84.26,6.23,6.23,0,0,0,3.09-.15A6.6,6.6,0,0,0,14.52,7.69Z"/><path class="cls-4" d="M10,4.91l.46.67a.42.42,0,0,1-.3.57.4.4,0,0,1-.43-.44l.19-.8A0,0,0,0,1,10,4.91Z"/><path class="cls-4" d="M6.08,11.11l-.51-.63a.42.42,0,0,1,.26-.59.4.4,0,0,1,.46.4l-.13.81C6.12,11.16,6.08,11.11,6.08,11.11Z"/></svg>